<svg width="2165" height="2165" viewBox="0 0 2165 2165" fill="none" xmlns="http://www.w3.org/2000/svg">
<mask id="mask0_917_11" style="mask-type:alpha" maskUnits="userSpaceOnUse" x="0" y="0" width="2165" height="2165">
<rect width="2165" height="2165" fill="white"/>
</mask>
<g mask="url(#mask0_917_11)">
<path fill-rule="evenodd" clip-rule="evenodd" d="M851.197 845.315V1039.63L862.762 1031.44C899.798 1005.21 936.829 995.032 981.259 998.885C1004.21 1000.87 1022.85 1005.89 1056.59 1019.17C1113.89 1041.72 1137.58 1047.44 1173.17 1047.35C1194.03 1047.3 1201.21 1046.49 1216.66 1042.45C1248.75 1034.05 1284.18 1013.73 1305.48 991.499L1312.88 983.773L1313.37 817.386L1313.86 651H1082.53H851.197V845.315ZM1136.39 734.854C1141.86 737.593 1148.74 741.816 1151.67 744.237C1157.73 749.239 1157.61 749.588 1144.89 763.648L1137.88 771.389L1132.53 767.581C1116.92 756.468 1100.57 753.717 1087.13 759.941C1071.84 767.015 1063.97 780.46 1064.04 799.381C1064.17 836.897 1101.58 854.316 1132.07 831.063L1138.36 826.269L1148.46 836.207L1158.56 846.146L1151.52 852.178C1122.97 876.663 1077.78 875.741 1052.18 850.154C1020.07 818.058 1026 762.868 1064.14 738.773C1077.24 730.497 1085.78 728.592 1106.78 729.253C1123.68 729.783 1127.82 730.566 1136.39 734.854ZM950.194 772.183L981.652 813.742L982.149 772.14L982.647 730.538H997.415H1012.18V798.978V867.418L998.768 867.325L985.353 867.231L952.97 824.319L920.588 781.406L920.092 824.412L919.594 867.418H904.826H890.056V798.978V730.538L904.396 730.579L918.737 730.621L950.194 772.183ZM1208.33 785.105V839.672H1242.56H1276.79V853.545V867.418H1226.83H1176.87V798.978V730.538H1192.6H1208.33V785.105ZM1032.54 938.541C1042.21 940.006 1060.11 944.183 1072.32 947.823C1150.55 971.139 1186.42 976.529 1221.28 970.205C1239.27 966.944 1253.34 961.535 1267.29 952.523C1278.36 945.372 1282.51 945.293 1278.75 952.303C1272.84 963.346 1238.55 983.327 1214.53 989.725C1203.69 992.614 1194.13 993.63 1176.87 993.732C1143.15 993.93 1118.51 989.094 1061.23 971.036C1018.73 957.634 1005.72 955.426 970.549 955.635C936.387 955.838 917.542 958.935 899.717 967.273C885.905 973.734 886.355 973.633 886.355 970.27C886.355 966.272 898.951 956.158 910.022 951.264C922.201 945.879 943.024 940.053 957.754 937.905C975.36 935.338 1013.53 935.663 1032.54 938.541ZM335.853 1129.85C299.434 1138.85 270.375 1165.59 258.875 1200.69C252.783 1219.28 252.646 1247.25 258.553 1266.11C266.883 1292.71 287.061 1316.14 311.797 1327.95C331.317 1337.27 343.288 1339.96 364.534 1339.82C397.187 1339.6 419.712 1330.3 442.326 1307.71C463.414 1286.65 473.654 1262.14 473.654 1232.74C473.654 1162.44 406.596 1112.37 335.853 1129.85ZM1421.59 1129.19C1384.76 1137.18 1353.45 1167.13 1342.34 1204.99C1338.13 1219.3 1338.04 1247.13 1342.14 1262.75C1351.9 1299.95 1380.94 1328.08 1419.28 1337.49C1433.2 1340.91 1465.41 1340.44 1480.34 1336.61C1494.95 1332.87 1519.46 1321.03 1528.92 1313.16L1535.85 1307.38V1262.17V1216.95L1490.98 1217.44L1446.11 1217.94V1237.36V1256.78L1468.78 1257.3L1491.44 1257.82V1272.67V1287.51L1480.8 1292.48C1471.39 1296.87 1467.92 1297.45 1450.74 1297.46C1433.17 1297.48 1430.29 1296.98 1420.73 1292.29C1389.84 1277.12 1377.1 1234.27 1393.75 1201.5C1399.73 1189.74 1413.53 1177.36 1425.86 1172.69C1446.46 1164.91 1474.09 1169.64 1492.08 1184.03C1500.28 1190.59 1498.14 1191.84 1516.33 1169.85L1528.56 1155.05L1522.49 1150.01C1499.3 1130.77 1455.71 1121.78 1421.59 1129.19ZM1794.27 1134.24C1792.87 1137.55 1774 1181.87 1752.34 1232.74C1730.67 1283.61 1711.8 1327.95 1710.4 1331.29L1707.85 1337.36L1731.38 1336.84L1754.91 1336.32L1764.02 1313.66L1773.12 1291H1815.04H1856.97L1868.49 1314.13L1880.02 1337.25H1903.37C1924.71 1337.25 1926.65 1336.97 1925.87 1334.01C1925.39 1332.23 1905.61 1285.2 1881.89 1229.5L1838.78 1128.23H1817.8H1796.81L1794.27 1134.24ZM0 1233.66V1337.25H22.2051H44.4103V1272.4C44.4103 1230.63 45.0542 1207.95 46.22 1208.67C47.2137 1209.28 69.8647 1238.46 96.5535 1273.52L145.077 1337.25H164.135H183.192V1233.66V1130.08H161.011H138.83L138.344 1192.92L137.857 1255.76L90.0584 1192.92L42.2601 1130.08H21.13H0V1233.66ZM538.474 1233.66V1337.25H560.679H582.885V1303.95V1270.66H601.115H619.347L641.362 1303.91L663.378 1337.16L689.747 1337.2C704.249 1337.23 716.115 1336.85 716.115 1336.37C716.115 1335.89 705.29 1319.7 692.06 1300.39C678.829 1281.08 668.006 1264.62 668.008 1263.81C668.012 1263 672.597 1259.94 678.2 1257.01C690.385 1250.65 698.322 1242.06 704.826 1228.2C709.058 1219.18 709.637 1215.59 709.622 1198.52C709.607 1181.42 709.023 1177.85 704.722 1168.65C695.903 1149.78 678.683 1137.03 655.423 1132.14C649.513 1130.9 624.332 1130.08 592.046 1130.08H538.474V1233.66ZM761.419 1133.32C763.194 1137.77 830.842 1337.67 830.842 1338.46C830.842 1338.81 839.804 1339.1 850.758 1339.1H870.674L893.662 1272.48C906.306 1235.84 917.266 1206.5 918.017 1207.28C918.769 1208.06 928.291 1234.5 939.177 1266.03C950.065 1297.57 960.207 1326.94 961.717 1331.3L964.461 1339.22L984.159 1338.7L1003.86 1338.17L1018.03 1296.55C1025.83 1273.66 1041.7 1226.82 1053.31 1192.45L1074.42 1129.98L1050.46 1130.49L1026.51 1131L1006.2 1197.59C995.027 1234.22 985.332 1264.78 984.657 1265.52C983.981 1266.25 973.179 1236.08 960.653 1198.46L937.876 1130.08H918.01H898.144L875.428 1199.58C862.934 1237.81 852.488 1268.82 852.214 1268.49C851.942 1268.15 842.272 1236.88 830.725 1198.98L809.734 1130.08H784.931C762.052 1130.08 760.23 1130.33 761.419 1133.32ZM1128.76 1233.66V1337.25H1207.4H1286.05V1316.9V1296.55H1230.53H1175.02V1274.36V1252.16H1223.13H1271.24V1231.81V1211.47H1223.13H1175.02V1191.12V1170.77H1229.61H1284.2V1150.43V1130.08H1206.48H1128.76V1233.66ZM1606.17 1233.66V1337.25H1629.3H1652.43V1233.66V1130.08H1629.3H1606.17V1233.66ZM1981.81 1233.66V1337.25H2003.99H2026.17L2026.66 1272.11L2027.14 1206.97L2076.83 1272.11L2126.51 1337.25H2145.76H2165V1233.66V1130.08H2142.82H2120.64L2120.15 1193.19L2119.66 1256.31L2071.59 1193.19L2023.51 1130.08H2002.66H1981.81V1233.66ZM390.993 1175.13C417.758 1188.22 431.449 1221.49 422.965 1252.82C412.964 1289.75 372.741 1308.2 337.446 1292.05C293.557 1271.96 289.377 1203.45 330.492 1178.05C347.671 1167.44 372.785 1166.23 390.993 1175.13ZM648.875 1174.96C665.406 1183.83 669.292 1205.4 656.9 1219.51C649.333 1228.12 641.075 1229.96 609.964 1229.96H582.885V1200.18V1170.39L612.954 1171.11C636.704 1171.67 644.252 1172.48 648.875 1174.96ZM1830.55 1216.58C1837.43 1233.61 1843.06 1248.16 1843.04 1248.92C1843.03 1249.69 1831.01 1250.31 1816.33 1250.31H1789.63L1802.84 1217.94C1810.1 1200.14 1816.5 1185.58 1817.05 1185.6C1817.6 1185.61 1823.67 1199.56 1830.55 1216.58ZM561.605 1413.64C541.213 1423.42 529.837 1443.47 531.5 1466.7C533.578 1495.73 554.877 1515.19 584.369 1515C591.186 1514.95 599.453 1514.13 602.743 1513.16C609.973 1511.03 625.444 1500.22 625.444 1497.3C625.444 1496.14 622.504 1492.35 618.912 1488.87C613.393 1483.52 611.885 1482.89 609.198 1484.79C600.812 1490.71 591.674 1494.47 585.675 1494.47C557.956 1494.47 544.346 1459.01 564.38 1438.98C575.64 1427.73 590.151 1426.82 604.396 1436.49L611.477 1441.29L618.391 1433.26C624.982 1425.61 625.156 1425.08 622.134 1421.74C615.28 1414.16 604.81 1410.58 587.511 1409.88C572.911 1409.29 569.715 1409.75 561.605 1413.64ZM987.057 1412.78C969.985 1420.79 964.004 1438.82 972.698 1456.07C975.775 1462.18 984.377 1466.78 1002.93 1472.25C1010.56 1474.5 1018.27 1477.64 1020.05 1479.22C1024.35 1483.04 1024.17 1490.17 1019.71 1492.56C1011.09 1497.17 990.608 1493.4 981.977 1485.62C978.619 1482.59 978.153 1482.81 971.136 1490.7C962.757 1500.13 962.653 1499.92 979.801 1508.82C992.144 1515.23 1017.44 1516.95 1027.13 1512.04C1040.38 1505.32 1045.92 1496.88 1045.92 1483.38C1045.92 1466.29 1037.21 1458.39 1010.33 1451.11C996.622 1447.39 991.829 1443.96 991.829 1437.84C991.829 1428.77 1007.9 1426.94 1022.51 1434.35C1027.52 1436.89 1031.68 1438.97 1031.76 1438.97C1031.84 1438.98 1034.54 1435.33 1037.75 1430.86C1044.28 1421.77 1044.27 1421.75 1030.69 1414.85C1018.97 1408.9 997.495 1407.88 987.057 1412.78ZM658.752 1463.12V1515L670.317 1514.45L681.882 1513.9L682.417 1497.71L682.952 1481.53L691.669 1481.56L700.387 1481.58L711.265 1498.2L722.142 1514.82H734.858C741.851 1514.82 747.573 1514.2 747.573 1513.43C747.573 1512.67 742.16 1504.2 735.547 1494.62L723.521 1477.19L729.257 1474.41C735.932 1471.18 743.28 1460.9 744.976 1452.42C746.881 1442.91 744.129 1430.32 738.748 1423.93C729.664 1413.14 722.496 1411.32 688.822 1411.28L658.752 1411.24V1463.12ZM779.03 1444.64C779.03 1482.75 780.59 1491.31 789.42 1501.62C798.339 1512.04 808.232 1515.37 827.763 1514.55C841.682 1513.97 844.385 1513.26 851.4 1508.33C856.191 1504.96 861.189 1499.14 864.048 1493.59C868.568 1484.81 868.803 1482.81 869.405 1447.82L870.036 1411.24H857.84H845.645V1446.35V1481.47L840.246 1487.51C835.375 1492.96 833.84 1493.55 824.56 1493.55C815.955 1493.55 813.487 1492.76 809.475 1488.75C802.743 1482.02 801.329 1473.68 801.279 1440.37L801.235 1411.24H790.132H779.03V1444.64ZM908.56 1463.03V1514.82H919.662H930.765V1463.03V1411.24H919.662H908.56V1463.03ZM1080.65 1463.07V1514.9L1119.97 1514.4L1159.29 1513.9V1503.72V1493.55L1131.07 1493.04L1102.85 1492.53V1482.4V1472.28H1127.84H1152.82V1462.16V1452.04L1128.3 1451.52L1103.78 1451.01L1103.22 1441.29L1102.66 1431.58H1130.51H1158.37V1421.41V1411.24H1119.51H1080.65V1463.07ZM1253.17 1462.57L1253.66 1513.9H1290.67H1327.68L1328.24 1503.26L1328.79 1492.62H1302.79H1276.79V1451.93V1411.24H1264.74H1252.68L1253.17 1462.57ZM1360.5 1462.57L1360.99 1513.9H1372.09H1383.19L1383.69 1462.57L1384.18 1411.24H1372.09H1360L1360.5 1462.57ZM1424.83 1463.03V1514.82H1435.89H1446.95L1447.45 1482.43L1447.96 1450.04L1472.72 1482.43L1497.47 1514.82H1506.49H1515.5V1463.03V1411.24H1504.44H1493.38L1492.88 1441.73L1492.37 1472.23L1469.33 1441.73L1446.29 1411.24H1435.56H1424.83V1463.03ZM1556.21 1463.03V1514.82H1595.07H1633.93V1503.72V1492.62H1606.17H1578.41V1482.45V1472.28H1602.47H1626.53V1462.1V1451.93H1602.47H1578.41V1441.76V1431.58H1606.17H1633.93V1421.41V1411.24H1595.07H1556.21V1463.03ZM1670.01 1414.7C1661.6 1419.92 1656.67 1426.17 1654.52 1434.36C1649.1 1454.97 1665.14 1473.68 1686.7 1471.89C1710.43 1469.92 1722.4 1445.5 1709.71 1424.98C1701.99 1412.49 1681.94 1407.29 1670.01 1414.7ZM1698.32 1419.8C1710.07 1427.37 1713.69 1447.02 1705.19 1457.12C1692.28 1472.45 1671.61 1471.48 1661.6 1455.07C1652.89 1440.78 1661.12 1420.56 1677.41 1416.24C1682.77 1414.81 1693.39 1416.62 1698.32 1419.8ZM1671.33 1441.07C1671.76 1455.01 1672.41 1458.4 1674.64 1458.4C1676.51 1458.4 1677.6 1456.15 1677.99 1451.47C1678.6 1444.02 1679.31 1443.59 1686.41 1446.29C1689.49 1447.45 1691.22 1449.72 1691.62 1453.08C1691.95 1455.85 1693.26 1458.46 1694.53 1458.88C1697.51 1459.86 1697.69 1447.97 1694.74 1445.02C1693.17 1443.45 1693.42 1442.14 1695.73 1439.83C1698.78 1436.78 1698.36 1430.88 1694.81 1427.08C1693.92 1426.13 1688.15 1424.99 1681.99 1424.54L1670.79 1423.73L1671.33 1441.07ZM1690.37 1435.28C1690.37 1439.15 1689.38 1440 1684.35 1440.49C1678.72 1441.03 1678.34 1440.69 1678.34 1435.28C1678.34 1429.87 1678.72 1429.54 1684.35 1430.08C1689.38 1430.56 1690.37 1431.42 1690.37 1435.28ZM716.791 1435.42C720.118 1438.03 721.667 1441.01 721.667 1444.79C721.667 1456.87 714.541 1461.18 694.56 1461.18H682.808V1446.38V1431.58H697.361C709.284 1431.58 712.798 1432.28 716.791 1435.42Z" fill="white"/>
</g>
</svg>
