<svg width="2165" height="2165" viewBox="0 0 2165 2165" fill="none" xmlns="http://www.w3.org/2000/svg">
<mask id="mask0_917_14" style="mask-type:alpha" maskUnits="userSpaceOnUse" x="0" y="0" width="2165" height="2165">
<rect width="2165" height="2165" fill="white"/>
</mask>
<g mask="url(#mask0_917_14)">
<path fill-rule="evenodd" clip-rule="evenodd" d="M741.807 641.13C741.457 647.801 740.751 665.389 740.238 680.214C735.747 810.203 727.12 914.61 717.334 957.401C713.781 972.938 709.588 983.402 706.183 985.224C700.475 988.279 691.918 983.611 678.24 969.98C656.514 948.328 631.499 914.376 569.19 821.969C554.453 800.112 542.025 782.457 541.574 782.736C541.123 783.014 542.264 785.938 544.109 789.232C564.516 825.667 592.385 880.66 605.88 911.128C628.847 962.974 640.668 997.902 640.626 1013.78C640.596 1025.13 638.765 1027.41 629.638 1027.45C609.612 1027.55 565.71 1008.72 440.319 946.262C418.887 935.587 400.795 926.852 400.116 926.852C397.837 926.852 398.853 928.181 403.15 930.82C416.243 938.863 497.509 993.423 514.323 1005.46C573.218 1047.62 601.915 1074.27 601.915 1086.81C601.915 1089.34 601.21 1090.69 598.546 1093.22C593.58 1097.96 588.339 1100.66 576.212 1104.71C546.157 1114.76 509.767 1120.41 384.968 1134.41C353.845 1137.91 325.748 1141.14 322.53 1141.61C319.312 1142.07 316.15 1142.46 315.503 1142.47C314.856 1142.48 314.536 1142.83 314.791 1143.24C315.046 1143.65 342.662 1144.27 376.158 1144.6C409.655 1144.94 453.435 1145.63 473.446 1146.13C493.458 1146.63 527.821 1147.41 549.809 1147.86C618.244 1149.27 654.04 1153.1 675.26 1161.29C694.736 1168.8 712.987 1183.96 725.664 1203.14C730.014 1209.72 737.951 1225.85 740.812 1233.91C741.732 1236.51 742.72 1238.63 743.007 1238.63C743.296 1238.63 744.217 1236.46 745.054 1233.8C747.399 1226.36 755.586 1210.33 761.689 1201.22C773.484 1183.63 792.017 1168.48 810.429 1161.38C828.773 1154.3 843.618 1152.1 888.795 1149.76C932.574 1147.49 1074.92 1144.38 1137.97 1144.32C1158.64 1144.3 1170.69 1143.96 1171.04 1143.39C1171.34 1142.9 1171.27 1142.48 1170.87 1142.47C1170.47 1142.46 1167.51 1142.08 1164.3 1141.62C1161.09 1141.16 1142.09 1138.94 1122.08 1136.68C990.741 1121.84 960.666 1117.61 926.274 1109.16C902.87 1103.4 887.607 1096.58 884.123 1090.33C880.981 1084.68 886.114 1075.88 901.273 1060.91C926.086 1036.41 971.598 1002.66 1048.35 951.832C1068.4 938.559 1084.93 927.306 1085.09 926.827C1085.26 926.346 1085.02 925.953 1084.56 925.953C1084.1 925.953 1057.28 939.048 1024.96 955.052C992.648 971.057 957.403 988.251 946.641 993.262C886.833 1021.11 855.114 1031.32 846.983 1025.33C841.693 1021.43 842.423 1007.99 849.137 985.703C861.211 945.617 895.892 869.595 932.844 802.214C938.595 791.729 943.299 782.935 943.299 782.672C943.299 780.431 939.963 784.584 930.152 799.041C848.113 919.915 829.909 944.912 807.21 967.839C795.741 979.423 789.498 983.624 782.947 984.168L778.094 984.57L775.315 980.195C764.177 962.661 755.032 892.057 748.389 772.31C746.478 737.854 744.143 683.935 743.097 650.115L742.445 629L741.807 641.13ZM765.527 1032.32C782.939 1036.73 795.938 1043.85 808.486 1055.84C824.256 1070.91 834.13 1089.05 837.672 1109.47C838.355 1113.4 839.256 1116.93 839.674 1117.3C840.093 1117.67 851.148 1119.28 864.242 1120.87C877.336 1122.45 895.528 1125.12 904.669 1126.8L921.289 1129.85L910.958 1129.39C826.001 1125.63 665.582 1125.47 585.389 1129.07C574.571 1129.55 565.567 1129.8 565.382 1129.61C564.485 1128.72 634.236 1118.23 641.1 1118.23C646.195 1118.23 647.409 1117.08 648.047 1111.65C648.87 1104.65 652.655 1092.2 656.238 1084.72C670.242 1055.47 698.531 1034.66 730.343 1030.2C739.776 1028.88 755.784 1029.84 765.527 1032.32ZM534.986 1222.62C482.385 1226.08 443.282 1263.37 429.141 1323.54C425.32 1339.8 423.941 1351.27 423.402 1371.28C420.975 1461.3 457.056 1520.96 521.796 1533.97C533.825 1536.39 559.777 1536.12 572.268 1533.45C629.317 1521.25 665.037 1469.29 668.243 1393.85C671.584 1315.22 646.643 1257.85 598.662 1233.79C580.644 1224.76 559.302 1221.01 534.986 1222.62ZM941.503 1222.52C917.94 1224.03 896.591 1231.09 877.585 1243.66C868.123 1249.91 851.452 1266.9 844.661 1277.2C825.946 1305.59 816.628 1340.6 816.628 1382.51C816.628 1401.2 817.679 1412.85 820.75 1428.21C831.893 1483.95 866.361 1519.46 919.224 1529.65C953.25 1536.21 997.178 1531.99 1022.19 1519.77C1032.27 1514.85 1033.13 1513.36 1033.12 1500.99C1033.11 1490.64 1032.08 1487.24 1028.8 1486.77C1027.55 1486.59 1022.65 1488.73 1016.24 1492.26C988.992 1507.26 965.284 1511.49 942 1505.51C903.365 1495.57 875.029 1454.71 868.773 1399.91C867.583 1389.49 867.574 1365.18 868.757 1355.41C874.748 1305.91 897.24 1268.63 930.342 1253.34C940.712 1248.55 950.896 1246.43 963.513 1246.45C981.403 1246.48 997.056 1251.1 1016.07 1261.96C1031.39 1270.72 1033.55 1269.63 1032.98 1253.45C1032.56 1241.59 1031.06 1239.01 1022.07 1234.63C1009.88 1228.69 987.691 1223.85 968.201 1222.88C962.658 1222.61 956.708 1222.27 954.978 1222.12C953.249 1221.97 947.185 1222.15 941.503 1222.52ZM1.79676 1229.65C0.0143741 1231.43 0 1232.64 0 1379.63C0 1513.15 0.140147 1527.96 1.41136 1529.23C3.53063 1531.35 48.5754 1531.35 50.6947 1529.23C51.9497 1527.98 52.1061 1521.2 52.1061 1468.22V1408.63L77.4853 1408.21C99.475 1407.84 103.852 1407.53 110.26 1405.89C133.566 1399.91 150.705 1388.36 162.537 1370.67C183.322 1339.59 182.967 1293.33 161.702 1261.99C147.858 1241.59 129.255 1231.13 102.679 1228.8C96.8517 1228.28 72.1741 1227.86 47.8388 1227.86C4.78477 1227.85 3.54501 1227.9 1.79676 1229.65ZM561.675 1248.52C580.519 1254.42 596.38 1272.64 606.251 1299.73C618.898 1334.43 622.482 1380.59 615.742 1421.92C607.75 1470.93 587.377 1502.27 558.745 1509.61C550.551 1511.71 535.195 1511 527.798 1508.17C499.746 1497.46 481.995 1465.66 474.651 1412.94C472.471 1397.28 472.471 1361.21 474.651 1345.55C480.275 1305.18 491.822 1277.09 509.536 1260.69C523.829 1247.45 543.558 1242.85 561.675 1248.52ZM87.5544 1249.89C104.065 1254.19 116.055 1267.17 122.491 1287.72C125.801 1298.29 126.985 1308.99 126.404 1323.09C125.029 1356.43 109.655 1379.56 85.4557 1384.69C81.8146 1385.46 74.0176 1385.96 65.3572 1385.97L51.2077 1385.98V1317.25V1248.51H66.7407C77.7899 1248.51 83.7982 1248.91 87.5544 1249.89ZM1706.47 1262.92C1687.74 1265.81 1672.23 1273.95 1659.53 1287.54C1652.62 1294.94 1646.25 1306.44 1643.57 1316.35C1641.27 1324.85 1640.81 1341.93 1642.64 1350.95C1646.88 1371.88 1654.96 1382.78 1683.48 1405.99C1725.28 1440.01 1730.01 1445.87 1730.97 1464.77C1731.46 1474.35 1729.51 1482.36 1724.95 1489.53C1715.94 1503.7 1698.4 1511.71 1682.25 1509.02C1671.26 1507.19 1660.06 1502.3 1648.53 1494.31C1640.23 1488.56 1639.33 1488.21 1636.95 1489.88C1635.18 1491.12 1635.05 1492.01 1635.05 1503.17C1635.05 1517.7 1635.5 1518.52 1646.24 1523.49C1662.56 1531.03 1677.72 1534.23 1697.15 1534.23C1723.87 1534.24 1742.84 1527.5 1758.8 1512.34C1790.41 1482.32 1790.43 1434.19 1758.83 1402.03C1755.23 1398.37 1740.86 1386.55 1726.88 1375.78C1700.28 1355.26 1696.66 1351.72 1692.11 1341.78C1688.7 1334.33 1687.69 1327.29 1688.89 1319.35C1691.54 1301.83 1704.55 1288.52 1722.11 1285.36C1734.09 1283.2 1749.44 1287.6 1761.13 1296.52C1765.82 1300.1 1769.26 1300.63 1770.68 1297.99C1771.88 1295.73 1771.88 1278.57 1770.68 1276.31C1768.82 1272.85 1754.74 1267.37 1739.69 1264.26C1731.02 1262.47 1713.86 1261.78 1706.47 1262.92ZM2080.8 1263.03C2071.95 1264.29 2059.34 1268.72 2051.45 1273.34C2042.46 1278.59 2031.07 1289.82 2026.05 1298.38C2013.76 1319.33 2012.77 1347.39 2023.55 1368.82C2030.1 1381.81 2034.28 1386.19 2061.33 1408.32C2089.07 1431.01 2097.23 1439.05 2101.59 1447.98C2107.71 1460.54 2107.79 1472.8 2101.84 1485.27C2094.58 1500.48 2081.11 1509.14 2064.48 1509.29C2050.03 1509.42 2038.23 1504.74 2018.75 1491.17C2014.08 1487.91 2013.81 1487.88 2011.47 1490.21C2009.87 1491.81 2009.68 1493.19 2009.69 1503.01C2009.7 1509.95 2010.12 1514.85 2010.82 1516.27C2012.25 1519.15 2023.64 1525.16 2034.61 1528.81C2055.9 1535.91 2085.73 1536.15 2105.57 1529.38C2127.91 1521.76 2145.29 1504.8 2153.25 1482.85C2155.43 1476.83 2155.65 1474.93 2155.94 1459.94C2156.29 1441.6 2155.17 1435.22 2149.69 1424.35C2141.66 1408.41 2133.73 1400.33 2103.01 1376.75C2077.81 1357.41 2071.46 1351.32 2066.99 1342.18C2064.14 1336.35 2064.03 1335.71 2064.03 1325.34C2064.03 1315.07 2064.17 1314.26 2066.9 1308.48C2072.53 1296.61 2084.24 1287.63 2097.16 1285.28C2108.82 1283.16 2123.09 1287.35 2136.69 1296.88C2140.85 1299.8 2142.3 1300.39 2143.61 1299.69C2145.81 1298.51 2146.54 1294.04 2146.04 1284.69C2145.66 1277.35 2145.49 1276.83 2142.86 1274.64C2137.53 1270.19 2120.16 1264.8 2105.35 1262.99C2096.09 1261.85 2088.93 1261.86 2080.8 1263.03ZM266.585 1265.21C251.489 1267.94 240.651 1273.12 231.036 1282.19C223.966 1288.86 219.162 1296.56 215.881 1306.47C213.736 1312.94 213.494 1315.03 213.433 1327.58C213.356 1343.43 214.816 1350.03 220.784 1360.83C224.353 1367.28 233.294 1376.74 237.878 1378.92L240.828 1380.31L233.835 1384.38C209.553 1398.49 197.314 1418.84 196.116 1447.08C194.806 1477.99 207.049 1503.11 231.158 1519C246.336 1529 261.681 1533.31 282.198 1533.33C300.948 1533.34 315.148 1530.32 329.251 1523.31C357.023 1509.51 373.197 1481.64 371.657 1450.23C371.098 1438.8 369.526 1432.21 365.163 1422.95C363.45 1419.32 362.047 1416.04 362.047 1415.67C362.047 1415.3 364.514 1413.47 367.53 1411.61C382.403 1402.43 388.986 1390.91 390.45 1371.52C391.203 1361.53 390.426 1361.28 382.116 1368.78C374.039 1376.07 366.207 1380.49 338.429 1393.45C310.647 1406.41 306.097 1408.98 299.569 1415.37C291.421 1423.34 288.345 1430.22 286.644 1444.26C285.005 1457.78 286.271 1458.85 294.722 1451.08C297.707 1448.33 302.656 1444.46 305.72 1442.47C312.19 1438.28 324.225 1432.32 324.886 1432.98C325.135 1433.23 325.996 1435.79 326.8 1438.68C329.042 1446.74 328.735 1466.92 326.229 1476.28C322.021 1492 313.891 1502.86 302.168 1508.41C296.39 1511.15 295.415 1511.32 286.134 1511.32C276.862 1511.32 275.874 1511.15 270.13 1508.42C251.489 1499.59 241.538 1475.63 244.282 1446.17C247.402 1412.7 262.484 1395.87 289.35 1395.87C296.509 1395.87 297.364 1394.55 297.364 1383.48C297.364 1378.86 296.978 1374.36 296.505 1373.48C295.837 1372.23 294.032 1371.74 288.391 1371.27C278.573 1370.45 272.391 1367.97 266.316 1362.42C257.709 1354.55 254.234 1345.04 254.252 1329.41C254.269 1314.6 257.864 1304.49 266.085 1296.14C279.933 1282.07 301.56 1282.19 320.396 1296.45C329.743 1303.53 331.502 1302.34 331.502 1288.97C331.502 1277.35 330.933 1276.33 322.098 1272.25C306.071 1264.85 284.048 1262.05 266.585 1265.21ZM1289.25 1265.94C1288.47 1266.88 1288.29 1291.61 1288.52 1364.55C1288.8 1454.07 1288.95 1462.44 1290.42 1468.6C1294.2 1484.41 1299.88 1495.15 1310.43 1506.36C1318.83 1515.29 1325.67 1520.28 1336.84 1525.63C1360.17 1536.8 1385.56 1538.97 1411.8 1532.03C1428.32 1527.66 1439.99 1520.79 1451.86 1508.45C1468.5 1491.14 1474.08 1477.35 1476.04 1448.63C1477.42 1428.44 1477.19 1270.17 1475.77 1267.38L1474.63 1265.14H1458.76C1446.94 1265.14 1442.59 1265.43 1441.72 1266.3C1440.78 1267.24 1440.46 1286.67 1440.1 1364.69C1439.68 1455.71 1439.54 1462.34 1437.97 1468.65C1431.02 1496.57 1412.68 1511.7 1385.72 1511.76C1371.71 1511.79 1360.74 1507.17 1350.5 1496.93C1345.73 1492.16 1343.16 1488.66 1340.86 1483.8C1334.43 1470.2 1334.73 1475.59 1334.35 1366.24C1334.04 1277.49 1333.86 1267.72 1332.56 1266.28C1331.26 1264.84 1329.11 1264.69 1310.71 1264.69C1294.32 1264.69 1290.09 1264.93 1289.25 1265.94ZM1539.33 1266.89L1537.13 1269.1V1398.32C1537.13 1513.83 1537.28 1527.76 1538.53 1529.54C1539.9 1531.51 1540.25 1531.54 1560.85 1531.54C1579.98 1531.54 1581.9 1531.4 1583.26 1529.9C1584.63 1528.38 1584.74 1517.96 1584.74 1398.21C1584.74 1310.28 1584.44 1267.6 1583.81 1266.42C1582.93 1264.78 1581.73 1264.69 1562.21 1264.69H1541.54L1539.33 1266.89ZM1846.94 1265.36C1835.27 1265.58 1832.67 1265.88 1831.66 1267.09C1830.66 1268.3 1830.4 1290.36 1830.19 1394.88C1830.04 1464.36 1830.17 1522.92 1830.46 1525.02C1831.47 1532.06 1825.58 1531.54 1903.59 1531.54C1970.14 1531.54 1973.53 1531.46 1974.95 1529.9C1977.21 1527.4 1977.09 1512.64 1974.79 1510.56C1973.31 1509.22 1968.54 1509.08 1924.93 1509.08H1876.72V1456.97V1404.85H1912.93C1942.79 1404.85 1949.45 1404.63 1950.89 1403.58C1952.38 1402.48 1952.63 1401.19 1952.63 1394.51C1952.63 1382.44 1955.67 1383.29 1912.55 1383.29H1876.72V1334.32V1285.35H1921.91C1955.85 1285.35 1967.36 1285.08 1968.17 1284.27C1969.63 1282.81 1969.63 1267.23 1968.17 1265.76C1967.35 1264.95 1954.33 1264.74 1914.04 1264.89C1884.87 1265 1854.67 1265.21 1846.94 1265.36ZM1081.83 1267.56C1081 1268.39 1080.75 1298.84 1080.75 1399.14V1529.64L1082.75 1531.04C1085.57 1533.01 1122.6 1533.12 1125.27 1531.16C1126.97 1529.93 1127.03 1528.1 1127.26 1470.07L1127.51 1410.24H1133.62C1138.82 1410.24 1140 1410.54 1141.55 1412.26C1142.54 1413.38 1147.73 1421.97 1153.06 1431.36C1169.56 1460.37 1191.34 1497.6 1194.89 1502.84C1200.46 1511.06 1211.61 1520.85 1220.83 1525.61C1232.71 1531.75 1239.93 1533.34 1256.01 1533.34C1263.3 1533.34 1269.9 1533.09 1270.69 1532.79C1271.58 1532.45 1272.11 1531.16 1272.11 1529.28C1272.11 1526.71 1271.35 1525.7 1266.48 1521.82C1247.78 1506.95 1234.02 1487.93 1204.34 1435.97C1195.76 1420.96 1188.04 1407.59 1187.17 1406.27C1185.26 1403.36 1185.63 1402.95 1192.67 1400.11C1211.48 1392.54 1225.21 1376.87 1230.38 1357.08C1233.64 1344.64 1233.6 1326.9 1230.28 1313.77C1229.52 1310.74 1227.01 1304.42 1224.7 1299.73C1216.58 1283.17 1201.44 1271.35 1183.88 1267.86C1174.79 1266.05 1083.6 1265.79 1081.83 1267.56ZM1153.75 1284.47C1157.08 1284.95 1161.73 1286.24 1164.08 1287.34C1173.24 1291.61 1181.11 1302.52 1184.71 1315.9C1186.97 1324.32 1186.72 1343.53 1184.22 1352.87C1180.45 1367 1173.44 1376.34 1162.95 1381.21C1157.86 1383.57 1156.73 1383.73 1142.52 1384.04L1127.47 1384.37V1333.96V1283.56L1137.57 1283.57C1143.13 1283.58 1150.41 1283.99 1153.75 1284.47Z" fill="white"/>
</g>
</svg>
