<svg width="2165" height="2165" viewBox="0 0 2165 2165" fill="none" xmlns="http://www.w3.org/2000/svg">
<mask id="mask0_917_17" style="mask-type:alpha" maskUnits="userSpaceOnUse" x="0" y="0" width="2165" height="2165">
<rect width="2165" height="2165" fill="white"/>
</mask>
<g mask="url(#mask0_917_17)">
<path fill-rule="evenodd" clip-rule="evenodd" d="M394.189 889.582C427.294 958.786 440.464 1011.82 442.743 1085.1C444.625 1145.61 439.547 1184.42 422.223 1241.9L415.808 1263.2H387.734C372.295 1263.2 359.663 1262.59 359.663 1261.86C359.663 1261.12 362.368 1256.03 365.673 1250.55C383.223 1221.45 391.727 1185.7 391.722 1141.01C391.715 1093.84 382.136 1049.87 360.817 999.178C349.556 972.396 322.917 921.373 321.156 923.213C320.587 923.81 322.865 935.216 326.217 948.562C337.838 994.821 340.882 1019.23 340.988 1067.03C341.099 1116.86 337.883 1139.83 324.826 1182.49L317.474 1206.51L336.27 1233.82C346.606 1248.84 354.713 1261.48 354.281 1261.92C353.85 1262.35 338.514 1264.05 320.202 1265.69C253.217 1271.68 171.451 1281.75 87.2419 1294.37C39.8222 1301.47 0.605431 1307.73 0.0924391 1308.26C-0.420553 1308.8 1.25407 1310.41 3.8141 1311.85C7.0277 1313.65 16.0667 1313.35 33.0053 1310.89C220.889 1283.59 423.683 1276.23 522.839 1293.11L545.869 1297.03L560.077 1289.95C567.891 1286.06 573.44 1282.05 572.409 1281.05C569.474 1278.22 538.433 1271.64 511.733 1268.21C488.959 1265.28 487.536 1264.75 488.658 1259.62C489.317 1256.62 492.113 1245.3 494.876 1234.46C523.596 1121.71 490.389 989.437 407.519 886.484C374.288 845.2 373.092 845.478 394.189 889.582ZM972.148 992.253C944.673 997.438 922.417 1009.89 904.33 1030.18C883.541 1053.51 873.045 1081.82 871.042 1119.95C867.214 1192.87 901.19 1247.86 960.394 1264.57C980.741 1270.31 1025.28 1270.31 1044.3 1264.56C1104.9 1246.25 1137.26 1193.3 1133.34 1118.84C1131.19 1077.9 1122.61 1055.06 1100.1 1030.36C1084.4 1013.14 1072.32 1005.13 1050.35 997.389C1032.3 991.024 992.503 988.409 972.148 992.253ZM638.356 993.608C638.356 994.772 640.851 998.504 643.905 1001.9L649.454 1008.08L650.137 1136.93L650.82 1265.78H666.785H682.749V1135.8V1005.83L706.796 1004.18C777.33 999.358 814.122 1022.98 814.346 1073.23C814.502 1107.61 802.279 1130.68 777.036 1143.66C764.142 1150.28 760.527 1150.92 735.775 1150.92C720.854 1150.92 704.966 1150.06 700.47 1149.02C692.649 1147.19 692.326 1147.42 693.071 1154.18C693.82 1160.99 694.518 1161.31 712.345 1163.08C744.806 1166.29 779.892 1159.94 804.183 1146.47C834.701 1129.54 849.962 1101.98 847.388 1068.44C844.721 1033.65 822.848 1010.74 780.181 998.032C766.34 993.91 638.356 989.917 638.356 993.608ZM1161.21 994.364C1161.21 995.564 1163.43 998.649 1166.15 1001.22C1170.95 1005.77 1171.08 1009.17 1171.08 1135.83V1265.78H1178.45H1185.83L1186.47 1146.65L1187.11 1027.53L1231.61 1082.77C1256.09 1113.16 1299.22 1166.76 1327.46 1201.9C1361.14 1243.8 1380.41 1265.78 1383.46 1265.78C1387.96 1265.78 1388.11 1261.32 1388.11 1128.81V991.84L1381.33 992.658L1374.55 993.474V1099.94C1374.55 1158.5 1373.97 1206.41 1373.26 1206.41C1372.56 1206.41 1332.76 1158.21 1284.82 1099.3L1197.67 992.183H1179.44C1169.42 992.183 1161.21 993.164 1161.21 994.364ZM1527.79 999.281C1524.69 1005.59 1435.31 1208.47 1417.49 1249.65L1410.52 1265.78L1418.43 1265.69C1426.29 1265.61 1426.48 1265.27 1447.03 1217.94L1467.72 1170.28L1532.12 1170.29L1596.52 1170.3L1620.77 1218.04L1645.03 1265.78H1663.45H1681.87L1668.44 1239.32C1661.05 1224.77 1639.21 1180.93 1619.9 1141.89C1541.18 982.7 1546.35 992.183 1538.41 992.183C1533.13 992.183 1530.38 994.021 1527.79 999.281ZM1696.59 998.842L1702.57 1005.5L1703.25 1135.64L1703.93 1265.78H1711.24H1718.55L1719.19 1147.22L1719.83 1028.66L1814.78 1147.13C1887.56 1237.93 1911.03 1265.62 1915.29 1265.69L1920.84 1265.78V1136.96V1008.15L1943.65 1006.69C1956.2 1005.88 1978.39 1004.54 1992.98 1003.69L2019.49 1002.16V1133.97V1265.78H2035.52H2051.55V1135.43V1005.09L2083 1005.31C2100.29 1005.44 2124.43 1006.41 2136.64 1007.47C2160.24 1009.53 2165 1007.74 2165 996.852C2165 992.408 2158.79 992.183 2035.52 992.183H1906.04V1099.3C1906.04 1158.21 1905.21 1206.32 1904.19 1206.22C1903.17 1206.1 1863.49 1157.93 1816.02 1099.16L1729.7 992.309L1710.15 992.247L1690.61 992.183L1696.59 998.842ZM1036.61 1007.87C1077 1023.68 1100.01 1069.58 1099.79 1133.9C1099.64 1178.68 1091.61 1205.4 1071.18 1229.14C1051.06 1252.51 1023.57 1262.42 990.677 1258.15C949.808 1252.85 919.806 1220.31 908.214 1168.73C902.746 1144.4 904.552 1092.57 911.583 1071.97C918.762 1050.94 923.641 1042.03 935.04 1029.08C959.249 1001.6 999.25 993.241 1036.61 1007.87ZM254.842 1021.87C268.308 1064.39 265.405 1132.1 247.806 1186.04L239.714 1210.84L254.189 1228.63C262.147 1238.42 269.68 1247.49 270.925 1248.79C275.443 1253.53 290.313 1214.38 294.742 1186.09C298.328 1163.18 298.521 1155.42 296.069 1132.47C291.842 1092.89 274.669 1043.92 257.279 1021.87L253.21 1016.7L254.842 1021.87ZM1559.31 1096.35C1575.02 1127.39 1587.88 1153.81 1587.88 1155.07C1587.88 1156.35 1562.7 1157.37 1531.16 1157.37C1499.96 1157.37 1474.43 1156.73 1474.43 1155.95C1474.43 1155.17 1484.02 1132.81 1495.73 1106.26C1507.44 1079.72 1519.19 1052.94 1521.85 1046.76C1524.51 1040.57 1527.6 1036.51 1528.71 1037.72C1529.82 1038.94 1543.59 1065.32 1559.31 1096.35Z" fill="white"/>
</g>
</svg>
