<svg width="2165" height="2165" viewBox="0 0 2165 2165" fill="none" xmlns="http://www.w3.org/2000/svg">
<mask id="mask0_917_8" style="mask-type:alpha" maskUnits="userSpaceOnUse" x="0" y="0" width="2165" height="2165">
<rect width="2165" height="2165" fill="white"/>
</mask>
<g mask="url(#mask0_917_8)">
<path fill-rule="evenodd" clip-rule="evenodd" d="M373.219 758.816C347.932 772.192 310.645 800.604 280.938 829.114C262.273 847.039 256.792 850.092 254.422 843.903C252.5 838.891 256.516 831.945 265.665 824.457L279.891 812.804L219.264 812.626C172.898 812.488 159.109 813.896 160.657 818.603C161.768 821.99 167.254 825.436 172.844 826.263C186.033 828.218 195.093 839.374 205.111 865.989C210.401 880.039 211.684 890.304 208.803 895.528C198.912 913.443 132.052 963.886 126.099 957.919C122.382 954.202 95.5566 849.437 95.5517 838.64C95.5468 831.384 99.0075 827.391 106.224 826.332C112.094 825.466 117.811 821.99 118.922 818.603C120.47 813.901 106.406 812.449 59.2432 812.449C6.41254 812.449 -2.05256 813.512 0.366044 819.834C1.92437 823.895 6.99753 827.219 11.6479 827.219C27.8555 827.219 40.3467 849.703 57.97 910.598C67.7181 944.272 75.1804 972.255 74.5561 972.777C73.9367 973.304 62.7384 970.975 49.6819 967.598C29.0697 962.276 26.8674 962.399 32.9827 968.524C36.8564 972.403 48.6495 978.542 59.1842 982.166L78.3413 988.753L102.011 1079.07C115.033 1128.74 126.576 1172.15 127.667 1175.53C128.758 1178.92 137.214 1181.69 146.465 1181.69C162.948 1181.69 163.435 1181.08 171.379 1150.92C204.138 1026.53 227.98 939.108 229.577 937.508C231.062 936.021 262.238 1059.61 286.827 1164.46C289.806 1177.16 292.83 1179.44 308.442 1180.75C318.427 1181.59 326.592 1181.09 326.592 1179.62C326.592 1173.42 400.954 900.49 411.208 869.066C421.247 838.296 424.147 834.101 438.275 829.936C446.976 827.366 455.205 822.384 456.557 818.859C458.469 813.857 448.5 812.484 411.238 812.612C363.844 812.774 363.549 812.853 374.521 822.02C380.602 827.1 385.582 834.79 385.582 839.108C385.582 849.772 327.88 1060.05 321.415 1072.95C317.719 1080.33 315.782 1074.32 285.471 961.484L267.98 896.365L315.718 849.914C374.738 792.495 382.313 786.607 411.179 775.702C438.01 765.571 454.232 768.081 477.754 786.007C487.856 793.702 493.701 795.823 493.657 791.777C493.539 781.832 487.92 775.373 467.234 761.381C442.38 744.568 402.212 743.47 373.219 758.816ZM507.269 799.969C502.545 806.472 492.723 812.493 485.443 813.35C472.642 814.856 472.504 815.206 481.161 823.827C488.687 831.32 489.198 834.766 484.366 845.385C477.066 861.43 479.362 863.537 495.918 855.985C506.256 851.268 511.295 851.229 518.61 855.803C531.902 864.118 533.058 863.438 533.058 847.32C533.058 837.39 537.226 829.848 546.576 822.862L560.095 812.759L546.473 812.607C536.794 812.493 531.224 808.885 527.247 800.141C520.37 785.022 518.133 785.002 507.269 799.969ZM1740.24 862.208C1720.82 918.868 1635.6 1142.72 1630.31 1150.98C1626.38 1157.1 1617.91 1163.43 1611.48 1165.05C1605.06 1166.66 1599.8 1171.07 1599.8 1174.83C1599.8 1180.15 1609.16 1181.69 1641.58 1181.69C1674.57 1181.69 1683.37 1180.21 1683.37 1174.63C1683.37 1170.75 1678.94 1166.17 1673.54 1164.46C1660.9 1160.44 1660.9 1160.37 1679.23 1105.3C1693.56 1062.25 1695.29 1059.41 1701.63 1068.47C1707.49 1076.86 1714.11 1078.3 1746.7 1078.3H1784.9L1798.5 1117.42C1812.04 1156.38 1812.06 1166.92 1798.6 1166.92C1794.7 1166.92 1791.52 1170.24 1791.52 1174.3C1791.52 1180.63 1805.99 1181.69 1892.29 1181.69C1978.59 1181.69 1993.07 1180.63 1993.07 1174.3C1993.07 1170.24 1989.9 1166.92 1986.04 1166.92C1967.68 1166.92 1963.57 1153.25 1963.57 1092.12C1963.57 1045.24 1964.86 1033.85 1969.72 1037.84C1973.1 1040.62 1980.98 1043.66 1987.24 1044.6C1996.18 1045.94 2004.92 1058.42 2028.07 1102.92C2065.98 1175.79 2073.34 1182.58 2112.42 1180.68C2146.5 1179.02 2152.27 1172.66 2129.36 1161.99C2112.94 1154.34 2092.25 1126.25 2060.01 1067.77L2042 1035.1L2059.27 1024.89C2087.49 1008.22 2097.1 987.985 2095.18 949.308C2093.85 922.369 2091.32 913.926 2081.4 903.301C2056.3 876.391 2041.56 873.423 1942.83 875.397C1898.29 876.288 1890.58 877.593 1892.97 883.835C1894.53 887.897 1899.91 891.22 1904.93 891.22C1909.96 891.22 1916.35 895.503 1919.16 900.741C1924.55 910.849 1926.38 1131.35 1921.23 1150.61C1916.7 1167.49 1894.21 1172.92 1875.65 1161.62C1867.22 1156.49 1860.34 1151.61 1860.34 1150.78C1860.34 1149.95 1851.28 1127.21 1840.2 1100.25C1829.13 1073.28 1803.61 1008.13 1783.49 955.448C1763.37 902.77 1745.94 858.697 1744.75 857.511C1743.56 856.319 1741.53 858.436 1740.24 862.208ZM967.103 875.072C925.5 876.495 917.403 878.021 919.699 884.003C921.218 887.976 926.572 891.22 931.596 891.22C948.713 891.22 950.905 907.063 950.905 1030.86C950.905 1133.92 949.784 1152.57 943.182 1159.18C938.93 1163.44 932.294 1166.92 928.435 1166.92C924.571 1166.92 921.41 1170.42 921.41 1174.71C921.41 1181.58 931.453 1182.31 1006.21 1180.87C1088.78 1179.27 1091.75 1178.85 1119.56 1164.74C1151 1148.79 1175.54 1124.43 1192.8 1092.06C1202.4 1074.06 1204.07 1063.59 1204.07 1021.68C1204.07 976.726 1202.89 970.434 1190.42 949.19C1155 888.847 1099.82 870.533 967.103 875.072ZM1283.14 878.528C1249.69 890.989 1231.11 918.376 1231.11 955.221C1231.11 995.025 1247.43 1016.99 1301.16 1049.51C1358.44 1084.17 1372.61 1114.58 1344.55 1142.68C1317.49 1169.78 1265.2 1157.68 1247.34 1120.18C1238.47 1101.54 1226.19 1097.02 1226.19 1112.39C1226.19 1117.6 1228.77 1133.06 1231.93 1146.74C1238.15 1173.76 1243.32 1177.19 1288.31 1184.14C1327.38 1190.18 1374.76 1168.58 1390.88 1137.37C1399.06 1121.53 1400.62 1085.18 1393.88 1067.43C1387.42 1050.43 1360.37 1025.62 1326.97 1006.08C1284.46 981.216 1265.52 961.656 1265.52 942.613C1265.52 893.445 1339.85 879.582 1358.73 925.229C1368.92 949.865 1378.59 944.671 1378.51 914.605C1378.47 900.387 1376.5 885.711 1374.15 881.989C1367.78 871.916 1307.07 869.612 1283.14 878.528ZM459.32 883.835C462.687 887.897 468.409 891.22 472.037 891.22C486.323 891.22 488.815 911.494 488.815 1027.65C488.815 1125.92 487.571 1146.82 481.161 1155.97C476.953 1161.99 470.317 1166.92 466.413 1166.92C462.51 1166.92 459.32 1170.24 459.32 1174.3C459.32 1180.37 468.06 1181.69 508.478 1181.69C548.896 1181.69 557.637 1180.37 557.637 1174.3C557.637 1170.24 554.476 1166.92 550.612 1166.92C546.753 1166.92 540.117 1163.44 535.865 1159.18C529.263 1152.57 528.142 1133.92 528.142 1030.86C528.142 906.27 530.28 891.22 547.977 891.22C553.291 891.22 557.637 887.897 557.637 883.835C557.637 877.735 548.557 876.45 505.421 876.45C459.561 876.45 453.947 877.351 459.32 883.835ZM590.652 881.945C593.67 884.967 601.299 890.014 607.611 893.165L619.085 898.89L620.471 1016.9C621.233 1081.81 620.619 1139.98 619.105 1146.16C617.596 1152.35 610.885 1159.9 604.2 1162.95C597.519 1166 592.048 1171.47 592.048 1175.1C592.048 1180.09 602.194 1181.69 633.833 1181.69C666.253 1181.69 675.617 1180.15 675.617 1174.83C675.617 1171.07 670.121 1166.6 663.401 1164.91C656.323 1163.14 650.055 1157.22 648.492 1150.84C647.007 1144.79 646.422 1094.64 647.189 1039.4L648.58 938.96L687.607 990.166C709.075 1018.33 736.726 1054.3 749.055 1070.1C761.389 1085.89 774.795 1103.72 778.85 1109.71C793.234 1130.94 834.999 1184.2 840.067 1187.77C842.899 1189.76 849.201 1191.42 854.073 1191.46C862.12 1191.53 862.675 1187.82 860.149 1150.92C858.615 1128.58 859.052 1062.69 861.117 1004.51L864.878 898.713L878.396 892.239C901.992 880.93 893.277 876.45 847.672 876.45C802.073 876.45 793.347 880.935 816.948 892.229C828.515 897.763 830.929 902.602 833.667 925.731C837.836 960.947 837.87 1049.51 833.721 1080.43L830.467 1104.71L787.994 1049.96C764.638 1019.84 726.241 968.484 702.669 935.824L659.813 876.45H622.487C595.022 876.45 586.616 877.903 590.652 881.945ZM1410.96 882.604C1410.02 885.991 1406.49 897.94 1403.13 909.155C1394.34 938.512 1401.34 946.015 1418.21 925.313C1431.1 909.5 1433.59 908.594 1469.16 906.797L1506.56 904.906L1505.25 1032.22C1503.94 1158.94 1503.89 1159.56 1492.88 1164.39C1486.79 1167.07 1481.82 1172.05 1481.82 1175.47C1481.82 1180.06 1494.66 1181.69 1530.98 1181.69C1567.65 1181.69 1580.13 1180.09 1580.13 1175.38C1580.13 1171.91 1573.5 1166.57 1565.39 1163.5L1550.64 1157.93V1031.96V905.989H1587.37H1624.1L1628.15 921.655C1634.59 946.552 1641.22 942.958 1652.4 908.52L1662.81 876.45H1537.75C1441.9 876.45 1412.28 877.888 1410.96 882.604ZM2116.95 882.358C2113.7 885.607 2111.05 895.528 2111.05 904.399C2111.05 916.363 2114.37 922.713 2123.9 928.966C2135.41 936.523 2138.11 936.646 2149.71 930.157C2164.24 922.029 2170.02 895.675 2159.94 883.515C2152.83 874.939 2125.1 874.191 2116.95 882.358ZM2125.72 904.759C2125.67 914.61 2124.45 916.407 2121.26 911.361C2118.85 907.545 2118.01 901.45 2119.4 897.822C2123.39 887.409 2125.8 890.058 2125.72 904.759ZM1089.49 908.023C1134.59 929.552 1159.04 970.975 1159.48 1026.61C1159.98 1089.82 1127.84 1135.76 1069.81 1154.77C1039.57 1164.68 1006.04 1162.07 996.549 1149.07C991.815 1142.59 990.232 1110.61 990.232 1021.57C990.232 956.191 991.893 901.002 993.919 898.915C1000.38 892.273 1070.49 898.954 1089.49 908.023ZM2019.94 903.139C2078.92 927.824 2048.75 1024.06 1982.01 1024.13L1963.57 1024.15V960.144V896.143H1983.39C1994.29 896.143 2010.74 899.294 2019.94 903.139ZM2158.24 908.943C2156.49 913.507 2153.95 916.136 2152.6 914.782C2151.25 913.428 2151.57 908.584 2153.32 904.02C2155.07 899.456 2157.61 896.827 2158.96 898.181C2160.31 899.535 2159.99 904.38 2158.24 908.943ZM2145.46 921.049C2145.46 923.6 2142.21 925.682 2138.24 925.682C2133.85 925.682 2132.13 922.792 2133.84 918.327C2136.74 910.75 2145.46 912.798 2145.46 921.049ZM1756.44 1003.64C1764.92 1026.21 1771.85 1046.7 1771.85 1049.18C1771.85 1051.66 1755.03 1053.68 1734.46 1053.68C1700.79 1053.68 1697.41 1052.83 1700.56 1045.07C1702.49 1040.33 1709.13 1022.05 1715.32 1004.45C1731.78 957.668 1733.47 954.158 1737.43 958.584C1739.41 960.794 1747.97 981.073 1756.44 1003.64ZM186.229 983.53C182.287 996.389 174.225 1024.37 168.311 1045.71L157.56 1084.51L149.174 1054.73C144.563 1038.35 139.44 1016.47 137.794 1006.09L134.8 987.222L163.105 974.097C178.669 966.874 191.853 960.784 192.399 960.558C192.945 960.331 190.167 970.67 186.229 983.53ZM314.813 1250.53C298.011 1255.88 274.454 1277.22 264.706 1295.91C260.891 1303.22 257.77 1322.09 257.77 1337.84C257.77 1372.03 272.114 1397.24 298.768 1409.91C327.231 1423.44 395.684 1418.45 406.052 1402.09C411.09 1394.15 411.376 1368.77 406.43 1368.77C404.375 1368.77 399.976 1373.13 396.653 1378.46C386.727 1394.38 361.745 1404.63 339.992 1401.7C286.046 1394.46 265.109 1322.36 305.272 1282.14C319.366 1268.03 325.505 1265.38 344.205 1265.38C369.266 1265.38 395.414 1276.76 395.414 1287.66C395.414 1291.66 398.875 1294.92 403.097 1294.92C416.626 1294.92 410.093 1264.13 395.045 1256.94C377.692 1248.66 332.117 1245.01 314.813 1250.53ZM1335.79 1251.03C1316.34 1256.8 1304.85 1272.44 1304.85 1293.15C1304.85 1317.53 1308.9 1323.5 1339.53 1344.33C1371.77 1366.26 1378.85 1379.49 1365.97 1393.74C1350.97 1410.34 1323.06 1403.17 1314.45 1380.48C1307.53 1362.24 1299.02 1371.15 1302.95 1392.54C1307.13 1415.32 1311.12 1417.83 1343.32 1417.93C1365.76 1417.99 1371.56 1415.94 1383.88 1403.61C1400.21 1387.25 1403.1 1363.13 1390.82 1345.58C1386.74 1339.74 1370.15 1326.9 1353.96 1317.05C1331.16 1303.18 1324.51 1296.47 1324.51 1287.35C1324.51 1264.56 1358.5 1257.56 1371.63 1277.65C1376.05 1284.39 1381.2 1288.96 1383.09 1287.79C1388.63 1284.36 1382.95 1250.62 1376.82 1250.54C1373.73 1250.51 1366.79 1249.55 1361.38 1248.42C1355.97 1247.28 1344.46 1248.46 1335.79 1251.03ZM1828.38 1249.78C1799.57 1252.95 1780.75 1283.8 1791.06 1310.96C1793.74 1318.01 1808.14 1332.81 1823.07 1343.86C1858.16 1369.82 1863.85 1380.02 1850.62 1393.27C1836.72 1407.19 1822.72 1405.7 1805.51 1388.46C1797.4 1380.34 1789.53 1373.69 1788.04 1373.69C1782.74 1373.69 1791.26 1409.88 1797.49 1413.84C1806.67 1419.67 1849.48 1418.9 1861.08 1412.68C1873.92 1405.8 1885.21 1378.56 1881.51 1363.39C1877.48 1346.88 1866.92 1335.77 1836.99 1316.55C1810.46 1299.5 1803.87 1284.52 1817.08 1271.29C1827.83 1260.52 1850.16 1264.16 1856.32 1277.69C1864.46 1295.59 1870.17 1292.78 1870.17 1270.86C1870.17 1253.7 1868.77 1251.54 1856.65 1249.94C1849.22 1248.96 1836.5 1248.88 1828.38 1249.78ZM556.708 1260.65C566.702 1269.97 567.469 1275.2 567.469 1334.22C567.469 1392.1 566.598 1398.36 557.666 1404.62C543.887 1414.29 550.239 1418 580.579 1418C605.738 1418 614.926 1412.33 599.422 1406.37C593.995 1404.29 592.048 1395.7 592.048 1373.84C592.048 1334.63 601.732 1334.39 621.258 1373.13C629.29 1389.06 639.432 1405.67 643.802 1410.05C652.532 1418.79 683.084 1420.89 687.907 1413.08C689.578 1410.37 688.693 1408.15 685.936 1408.15C678.272 1408.15 659.695 1386.18 646.982 1362.08L635.553 1340.42L648.211 1327.74C666.405 1309.52 666.258 1275.26 647.917 1260.82C636.979 1252.2 628.042 1250.61 590.46 1250.61H545.952L556.708 1260.65ZM807.116 1258.85C817.582 1266.16 818.177 1269.88 818.177 1327.9C818.177 1389.11 818.202 1389.24 832.546 1403.61C844.182 1415.26 851.138 1418 869.095 1418C881.292 1418 897.455 1415.65 905.011 1412.77C914.705 1409.08 919.262 1409.08 920.491 1412.77C922.727 1419.5 960.737 1419.65 960.737 1412.92C960.737 1410.13 957.419 1406.57 953.363 1405.01C947.302 1402.68 945.989 1390.1 945.989 1334.38C945.989 1269.64 946.491 1266.23 957.05 1258.85C967.555 1251.52 966.385 1251.13 933.7 1251.13C901.014 1251.13 899.844 1251.52 910.349 1258.85C920.766 1266.13 921.41 1269.99 921.41 1324.95C921.41 1381.63 921.056 1383.54 909.233 1391.3C891.182 1403.15 862.302 1401.7 851.556 1388.41C839.531 1373.53 838.322 1266.77 850.13 1262.24C866.588 1255.91 855.729 1250.63 826.78 1250.87C797.412 1251.12 796.542 1251.47 807.116 1258.85ZM1103.3 1255.54C1103.3 1258.24 1106.61 1260.46 1110.67 1260.46C1116.88 1260.46 1118.04 1271.61 1118.04 1331.32C1118.04 1389.76 1116.75 1402.67 1110.67 1405.01C1093.8 1411.49 1104.88 1418 1132.79 1418C1161.21 1418 1169.79 1412.96 1155.45 1404.71C1148.3 1400.59 1144.49 1352.22 1146.52 1291.23C1147.3 1267.62 1149.25 1260.46 1154.91 1260.46C1158.97 1260.46 1162.29 1258.24 1162.29 1255.54C1162.29 1252.8 1149.18 1250.61 1132.79 1250.61C1116.41 1250.61 1103.3 1252.8 1103.3 1255.54ZM1535.89 1255.54C1535.89 1258.24 1539.21 1260.46 1543.27 1260.46C1549.48 1260.46 1550.64 1271.69 1550.64 1332C1550.64 1391.05 1549.35 1404.03 1543.27 1406.37C1523.12 1414.12 1540.58 1418.21 1588.34 1416.94L1640.78 1415.54L1645.38 1401.69C1651.15 1384.33 1646.83 1379.49 1635.08 1390.13C1629.39 1395.29 1617.6 1398.31 1603.1 1398.31H1580.13V1368.77V1339.23H1601.73C1616.78 1339.23 1624.22 1341.56 1626.27 1346.92C1631.6 1360.82 1639.12 1348.93 1639.12 1326.63C1639.12 1305.15 1633.08 1297.62 1627.51 1312.15C1625.55 1317.29 1617.53 1319.54 1601.18 1319.54L1577.68 1319.55L1579.36 1292.46L1581.04 1265.38H1602.67C1618.97 1265.38 1625.81 1267.8 1630.43 1275.23C1639.48 1289.74 1644.04 1287.27 1644.04 1267.84V1250.61H1589.97C1557.19 1250.61 1535.89 1252.55 1535.89 1255.54ZM626.459 1275.23C639.609 1288.4 638.852 1302.65 624.222 1317.3C617.586 1323.94 607.631 1329.38 602.101 1329.38C593.006 1329.38 592.048 1326.34 592.048 1297.38C592.048 1266.53 592.49 1265.38 604.337 1265.38C611.097 1265.38 621.051 1269.81 626.459 1275.23Z" fill="white"/>
</g>
</svg>
